<mxfile host="app.diagrams.net" agent="Mozilla/5.0 (Windows NT 10.0; Win64; x64) AppleWebKit/537.36 (KHTML, like Gecko) Chrome/129.0.0.0 Safari/537.36" version="24.7.16">
  <diagram name="페이지-1" id="WD8YnnUV9YajNrHjpi7d">
    <mxGraphModel dx="1434" dy="1907" grid="1" gridSize="10" guides="1" tooltips="1" connect="1" arrows="1" fold="1" page="1" pageScale="1" pageWidth="827" pageHeight="1169" math="0" shadow="0">
      <root>
        <mxCell id="0" />
        <mxCell id="1" parent="0" />
        <mxCell id="x0iYdePWhLgiK0Yyd-Qn-48" value="" style="swimlane;startSize=0;" vertex="1" parent="1">
          <mxGeometry x="10" y="-1160" width="810" height="1330" as="geometry" />
        </mxCell>
        <mxCell id="x0iYdePWhLgiK0Yyd-Qn-49" value="" style="rounded=0;whiteSpace=wrap;html=1;" vertex="1" parent="x0iYdePWhLgiK0Yyd-Qn-48">
          <mxGeometry x="10" y="10" width="790" height="1310" as="geometry" />
        </mxCell>
        <mxCell id="x0iYdePWhLgiK0Yyd-Qn-37" style="edgeStyle=orthogonalEdgeStyle;rounded=0;orthogonalLoop=1;jettySize=auto;html=1;exitX=1;exitY=0.5;exitDx=0;exitDy=0;entryX=0;entryY=0.5;entryDx=0;entryDy=0;" edge="1" parent="x0iYdePWhLgiK0Yyd-Qn-48" source="x0iYdePWhLgiK0Yyd-Qn-34" target="x0iYdePWhLgiK0Yyd-Qn-36">
          <mxGeometry relative="1" as="geometry" />
        </mxCell>
        <mxCell id="x0iYdePWhLgiK0Yyd-Qn-34" value="채팅목록 버튼&lt;div&gt;클릭&lt;/div&gt;" style="rhombus;whiteSpace=wrap;html=1;" vertex="1" parent="x0iYdePWhLgiK0Yyd-Qn-48">
          <mxGeometry x="330" y="890" width="120" height="60" as="geometry" />
        </mxCell>
        <mxCell id="x0iYdePWhLgiK0Yyd-Qn-39" style="edgeStyle=orthogonalEdgeStyle;rounded=0;orthogonalLoop=1;jettySize=auto;html=1;exitX=1;exitY=0.5;exitDx=0;exitDy=0;entryX=0.5;entryY=0;entryDx=0;entryDy=0;" edge="1" parent="x0iYdePWhLgiK0Yyd-Qn-48" source="x0iYdePWhLgiK0Yyd-Qn-36" target="x0iYdePWhLgiK0Yyd-Qn-38">
          <mxGeometry relative="1" as="geometry" />
        </mxCell>
        <mxCell id="x0iYdePWhLgiK0Yyd-Qn-41" style="edgeStyle=orthogonalEdgeStyle;rounded=0;orthogonalLoop=1;jettySize=auto;html=1;exitX=0.5;exitY=1;exitDx=0;exitDy=0;entryX=0.5;entryY=0;entryDx=0;entryDy=0;" edge="1" parent="x0iYdePWhLgiK0Yyd-Qn-48" source="x0iYdePWhLgiK0Yyd-Qn-36" target="x0iYdePWhLgiK0Yyd-Qn-40">
          <mxGeometry relative="1" as="geometry" />
        </mxCell>
        <mxCell id="x0iYdePWhLgiK0Yyd-Qn-36" value="친구 목록 폼에서 채팅 목록 리스트뷰가 있는 채팅목록 패널 보이기" style="rounded=0;whiteSpace=wrap;html=1;fillColor=#f5f5f5;fontColor=#333333;strokeColor=#666666;" vertex="1" parent="x0iYdePWhLgiK0Yyd-Qn-48">
          <mxGeometry x="530" y="880" width="120" height="80" as="geometry" />
        </mxCell>
        <mxCell id="x0iYdePWhLgiK0Yyd-Qn-47" style="edgeStyle=orthogonalEdgeStyle;rounded=0;orthogonalLoop=1;jettySize=auto;html=1;exitX=0.5;exitY=1;exitDx=0;exitDy=0;entryX=0.5;entryY=0;entryDx=0;entryDy=0;" edge="1" parent="x0iYdePWhLgiK0Yyd-Qn-48" source="x0iYdePWhLgiK0Yyd-Qn-38" target="x0iYdePWhLgiK0Yyd-Qn-46">
          <mxGeometry relative="1" as="geometry" />
        </mxCell>
        <mxCell id="x0iYdePWhLgiK0Yyd-Qn-38" value="채팅목록 항목&lt;div&gt;더블버튼&amp;nbsp;&lt;span style=&quot;background-color: initial;&quot;&gt;클릭&lt;/span&gt;&lt;/div&gt;" style="rhombus;whiteSpace=wrap;html=1;" vertex="1" parent="x0iYdePWhLgiK0Yyd-Qn-48">
          <mxGeometry x="670" y="970" width="120" height="60" as="geometry" />
        </mxCell>
        <mxCell id="x0iYdePWhLgiK0Yyd-Qn-44" style="edgeStyle=orthogonalEdgeStyle;rounded=0;orthogonalLoop=1;jettySize=auto;html=1;exitX=0;exitY=0.5;exitDx=0;exitDy=0;entryX=1;entryY=0.5;entryDx=0;entryDy=0;" edge="1" parent="x0iYdePWhLgiK0Yyd-Qn-48" source="x0iYdePWhLgiK0Yyd-Qn-40" target="x0iYdePWhLgiK0Yyd-Qn-43">
          <mxGeometry relative="1" as="geometry" />
        </mxCell>
        <mxCell id="x0iYdePWhLgiK0Yyd-Qn-40" value="채팅목록 항목&lt;div&gt;더블버튼&amp;nbsp;&lt;span style=&quot;background-color: initial;&quot;&gt;클릭&lt;/span&gt;&lt;/div&gt;" style="rhombus;whiteSpace=wrap;html=1;" vertex="1" parent="x0iYdePWhLgiK0Yyd-Qn-48">
          <mxGeometry x="530" y="1040" width="120" height="60" as="geometry" />
        </mxCell>
        <mxCell id="x0iYdePWhLgiK0Yyd-Qn-45" style="edgeStyle=orthogonalEdgeStyle;rounded=0;orthogonalLoop=1;jettySize=auto;html=1;exitX=0.5;exitY=0;exitDx=0;exitDy=0;entryX=0.5;entryY=1;entryDx=0;entryDy=0;" edge="1" parent="x0iYdePWhLgiK0Yyd-Qn-48" source="x0iYdePWhLgiK0Yyd-Qn-43" target="x0iYdePWhLgiK0Yyd-Qn-34">
          <mxGeometry relative="1" as="geometry" />
        </mxCell>
        <mxCell id="x0iYdePWhLgiK0Yyd-Qn-43" value="친구 목록 폼에서 채팅 목록 리스트뷰가 있는 채팅목록 패널 숨기기" style="rounded=0;whiteSpace=wrap;html=1;fillColor=#f5f5f5;fontColor=#333333;strokeColor=#666666;" vertex="1" parent="x0iYdePWhLgiK0Yyd-Qn-48">
          <mxGeometry x="330" y="1030" width="120" height="80" as="geometry" />
        </mxCell>
        <mxCell id="x0iYdePWhLgiK0Yyd-Qn-46" value="친구와의 채팅 폼 생성&lt;div&gt;&lt;span style=&quot;background-color: initial;&quot;&gt;(기존 채팅 내용 불러오기)&lt;/span&gt;&lt;/div&gt;" style="rounded=0;whiteSpace=wrap;html=1;fillColor=#ffe6cc;strokeColor=#d79b00;" vertex="1" parent="x0iYdePWhLgiK0Yyd-Qn-48">
          <mxGeometry x="670" y="1120" width="120" height="80" as="geometry" />
        </mxCell>
        <mxCell id="x0iYdePWhLgiK0Yyd-Qn-50" value="친구 목록 개발 시나리오" style="text;html=1;align=center;verticalAlign=middle;resizable=0;points=[];autosize=1;strokeColor=none;fillColor=none;fontSize=16;fontStyle=1" vertex="1" parent="x0iYdePWhLgiK0Yyd-Qn-48">
          <mxGeometry x="20" y="40" width="200" height="30" as="geometry" />
        </mxCell>
        <mxCell id="jukemgydLVU4VasC8p-U-3" style="edgeStyle=orthogonalEdgeStyle;rounded=0;orthogonalLoop=1;jettySize=auto;html=1;exitX=1;exitY=0.5;exitDx=0;exitDy=0;entryX=0;entryY=0.5;entryDx=0;entryDy=0;" parent="1" source="UKj5YuaMbmcDBtGW1ipd-1" target="mCQldhAXyMoxN78i_hk_-1" edge="1">
          <mxGeometry relative="1" as="geometry" />
        </mxCell>
        <mxCell id="UKj5YuaMbmcDBtGW1ipd-1" value="친구목록 폼" style="rounded=0;whiteSpace=wrap;html=1;" parent="1" vertex="1">
          <mxGeometry x="40" y="-1010" width="120" height="60" as="geometry" />
        </mxCell>
        <mxCell id="jukemgydLVU4VasC8p-U-4" style="edgeStyle=orthogonalEdgeStyle;rounded=0;orthogonalLoop=1;jettySize=auto;html=1;exitX=1;exitY=0.5;exitDx=0;exitDy=0;entryX=0;entryY=0.5;entryDx=0;entryDy=0;" parent="1" source="mCQldhAXyMoxN78i_hk_-1" target="mCQldhAXyMoxN78i_hk_-2" edge="1">
          <mxGeometry relative="1" as="geometry" />
        </mxCell>
        <mxCell id="mCQldhAXyMoxN78i_hk_-1" value="로그인 성공하면&lt;div&gt;친구목록 폼으로 이동&lt;/div&gt;" style="rounded=0;whiteSpace=wrap;html=1;" parent="1" vertex="1">
          <mxGeometry x="240" y="-1010" width="120" height="60" as="geometry" />
        </mxCell>
        <mxCell id="jukemgydLVU4VasC8p-U-5" style="edgeStyle=orthogonalEdgeStyle;rounded=0;orthogonalLoop=1;jettySize=auto;html=1;exitX=1;exitY=0.5;exitDx=0;exitDy=0;entryX=0;entryY=0.5;entryDx=0;entryDy=0;" parent="1" source="mCQldhAXyMoxN78i_hk_-2" target="mCQldhAXyMoxN78i_hk_-3" edge="1">
          <mxGeometry relative="1" as="geometry" />
        </mxCell>
        <mxCell id="mCQldhAXyMoxN78i_hk_-2" value="친구 목록 폼은 리스트박스로 우선 제작" style="rounded=0;whiteSpace=wrap;html=1;" parent="1" vertex="1">
          <mxGeometry x="440" y="-1010" width="120" height="60" as="geometry" />
        </mxCell>
        <mxCell id="jukemgydLVU4VasC8p-U-6" style="edgeStyle=orthogonalEdgeStyle;rounded=0;orthogonalLoop=1;jettySize=auto;html=1;exitX=1;exitY=0.5;exitDx=0;exitDy=0;entryX=1;entryY=0.5;entryDx=0;entryDy=0;" parent="1" source="mCQldhAXyMoxN78i_hk_-3" target="jukemgydLVU4VasC8p-U-1" edge="1">
          <mxGeometry relative="1" as="geometry" />
        </mxCell>
        <mxCell id="mCQldhAXyMoxN78i_hk_-3" value="친구목록 폼이 열릴때 서버에 친구목록데이터를 요청함." style="rounded=0;whiteSpace=wrap;html=1;" parent="1" vertex="1">
          <mxGeometry x="640" y="-1010" width="120" height="60" as="geometry" />
        </mxCell>
        <mxCell id="jukemgydLVU4VasC8p-U-7" style="edgeStyle=orthogonalEdgeStyle;rounded=0;orthogonalLoop=1;jettySize=auto;html=1;exitX=0;exitY=0.5;exitDx=0;exitDy=0;entryX=1;entryY=0.5;entryDx=0;entryDy=0;" parent="1" source="jukemgydLVU4VasC8p-U-1" target="jukemgydLVU4VasC8p-U-2" edge="1">
          <mxGeometry relative="1" as="geometry" />
        </mxCell>
        <mxCell id="jukemgydLVU4VasC8p-U-1" value="친구목록을 받아서 리스트박스에 정렬한다.&amp;nbsp;" style="rounded=0;whiteSpace=wrap;html=1;" parent="1" vertex="1">
          <mxGeometry x="640" y="-890" width="120" height="60" as="geometry" />
        </mxCell>
        <mxCell id="jukemgydLVU4VasC8p-U-9" style="edgeStyle=orthogonalEdgeStyle;rounded=0;orthogonalLoop=1;jettySize=auto;html=1;exitX=0;exitY=0.5;exitDx=0;exitDy=0;entryX=1;entryY=0.5;entryDx=0;entryDy=0;" parent="1" source="jukemgydLVU4VasC8p-U-2" target="jukemgydLVU4VasC8p-U-8" edge="1">
          <mxGeometry relative="1" as="geometry">
            <mxPoint x="390" y="-860" as="targetPoint" />
          </mxGeometry>
        </mxCell>
        <mxCell id="jukemgydLVU4VasC8p-U-2" value="친구목록에서 사람 이름을 클릭하면 그 사람과의 채팅방이 생성되게 한다." style="rounded=0;whiteSpace=wrap;html=1;" parent="1" vertex="1">
          <mxGeometry x="440" y="-890" width="120" height="60" as="geometry" />
        </mxCell>
        <mxCell id="jukemgydLVU4VasC8p-U-11" style="edgeStyle=orthogonalEdgeStyle;rounded=0;orthogonalLoop=1;jettySize=auto;html=1;exitX=0;exitY=0.5;exitDx=0;exitDy=0;entryX=1;entryY=0.5;entryDx=0;entryDy=0;" parent="1" source="jukemgydLVU4VasC8p-U-8" target="jukemgydLVU4VasC8p-U-10" edge="1">
          <mxGeometry relative="1" as="geometry" />
        </mxCell>
        <mxCell id="jukemgydLVU4VasC8p-U-8" value="채팅방 폼이 열릴 때 친구목록 폼은 모달 리스" style="rounded=0;whiteSpace=wrap;html=1;" parent="1" vertex="1">
          <mxGeometry x="240" y="-890" width="120" height="60" as="geometry" />
        </mxCell>
        <mxCell id="jukemgydLVU4VasC8p-U-10" value="채팅목록 버튼 클릭하면 채팅목록 관련 폼으로 이동" style="rounded=0;whiteSpace=wrap;html=1;" parent="1" vertex="1">
          <mxGeometry x="40" y="-890" width="120" height="60" as="geometry" />
        </mxCell>
        <mxCell id="x0iYdePWhLgiK0Yyd-Qn-8" style="edgeStyle=orthogonalEdgeStyle;rounded=0;orthogonalLoop=1;jettySize=auto;html=1;exitX=1;exitY=0.5;exitDx=0;exitDy=0;entryX=0;entryY=0.5;entryDx=0;entryDy=0;" edge="1" parent="1" source="x0iYdePWhLgiK0Yyd-Qn-1" target="x0iYdePWhLgiK0Yyd-Qn-2">
          <mxGeometry relative="1" as="geometry">
            <mxPoint x="220" y="-520" as="targetPoint" />
          </mxGeometry>
        </mxCell>
        <mxCell id="x0iYdePWhLgiK0Yyd-Qn-1" value="로그인 성공" style="rounded=0;whiteSpace=wrap;html=1;fillColor=#dae8fc;strokeColor=#6c8ebf;" vertex="1" parent="1">
          <mxGeometry x="30" y="-560" width="120" height="80" as="geometry" />
        </mxCell>
        <mxCell id="x0iYdePWhLgiK0Yyd-Qn-20" style="edgeStyle=orthogonalEdgeStyle;rounded=0;orthogonalLoop=1;jettySize=auto;html=1;exitX=1;exitY=0.25;exitDx=0;exitDy=0;entryX=0;entryY=0.5;entryDx=0;entryDy=0;" edge="1" parent="1" source="x0iYdePWhLgiK0Yyd-Qn-2" target="x0iYdePWhLgiK0Yyd-Qn-18">
          <mxGeometry relative="1" as="geometry" />
        </mxCell>
        <mxCell id="x0iYdePWhLgiK0Yyd-Qn-24" style="edgeStyle=orthogonalEdgeStyle;rounded=0;orthogonalLoop=1;jettySize=auto;html=1;exitX=1;exitY=0.75;exitDx=0;exitDy=0;entryX=0;entryY=0.5;entryDx=0;entryDy=0;" edge="1" parent="1" source="x0iYdePWhLgiK0Yyd-Qn-2" target="x0iYdePWhLgiK0Yyd-Qn-23">
          <mxGeometry relative="1" as="geometry" />
        </mxCell>
        <mxCell id="x0iYdePWhLgiK0Yyd-Qn-35" style="edgeStyle=orthogonalEdgeStyle;rounded=0;orthogonalLoop=1;jettySize=auto;html=1;exitX=0.75;exitY=1;exitDx=0;exitDy=0;entryX=0;entryY=0.5;entryDx=0;entryDy=0;" edge="1" parent="1" source="x0iYdePWhLgiK0Yyd-Qn-2" target="x0iYdePWhLgiK0Yyd-Qn-34">
          <mxGeometry relative="1" as="geometry" />
        </mxCell>
        <mxCell id="x0iYdePWhLgiK0Yyd-Qn-2" value="친구 목록 폼" style="rounded=0;whiteSpace=wrap;html=1;fillColor=#d5e8d4;strokeColor=#82b366;" vertex="1" parent="1">
          <mxGeometry x="230" y="-560" width="120" height="80" as="geometry" />
        </mxCell>
        <mxCell id="x0iYdePWhLgiK0Yyd-Qn-11" style="edgeStyle=orthogonalEdgeStyle;rounded=0;orthogonalLoop=1;jettySize=auto;html=1;exitX=0.5;exitY=1;exitDx=0;exitDy=0;entryX=0.5;entryY=0;entryDx=0;entryDy=0;" edge="1" parent="1" source="x0iYdePWhLgiK0Yyd-Qn-4" target="x0iYdePWhLgiK0Yyd-Qn-5">
          <mxGeometry relative="1" as="geometry" />
        </mxCell>
        <mxCell id="x0iYdePWhLgiK0Yyd-Qn-4" value="서버에 친구 목록 요청 메시지 데이터 패킷 전송" style="rounded=1;whiteSpace=wrap;html=1;" vertex="1" parent="1">
          <mxGeometry x="120" y="-440" width="140" height="80" as="geometry" />
        </mxCell>
        <mxCell id="x0iYdePWhLgiK0Yyd-Qn-12" style="edgeStyle=orthogonalEdgeStyle;rounded=0;orthogonalLoop=1;jettySize=auto;html=1;exitX=0.5;exitY=1;exitDx=0;exitDy=0;entryX=0.5;entryY=0;entryDx=0;entryDy=0;" edge="1" parent="1" source="x0iYdePWhLgiK0Yyd-Qn-5" target="x0iYdePWhLgiK0Yyd-Qn-6">
          <mxGeometry relative="1" as="geometry" />
        </mxCell>
        <mxCell id="x0iYdePWhLgiK0Yyd-Qn-5" value="서버로부터 사용자들 정보를 받으면 친구 목록 처리 로직으로 보냄" style="rounded=1;whiteSpace=wrap;html=1;" vertex="1" parent="1">
          <mxGeometry x="120" y="-280" width="140" height="80" as="geometry" />
        </mxCell>
        <mxCell id="x0iYdePWhLgiK0Yyd-Qn-13" style="edgeStyle=orthogonalEdgeStyle;rounded=0;orthogonalLoop=1;jettySize=auto;html=1;exitX=0.5;exitY=1;exitDx=0;exitDy=0;entryX=0.5;entryY=0;entryDx=0;entryDy=0;" edge="1" parent="1" source="x0iYdePWhLgiK0Yyd-Qn-6" target="x0iYdePWhLgiK0Yyd-Qn-7">
          <mxGeometry relative="1" as="geometry" />
        </mxCell>
        <mxCell id="x0iYdePWhLgiK0Yyd-Qn-6" value="친구 목록 처리 로직에서 본인과 친구를 구분" style="rounded=1;whiteSpace=wrap;html=1;" vertex="1" parent="1">
          <mxGeometry x="120" y="-120" width="140" height="80" as="geometry" />
        </mxCell>
        <mxCell id="x0iYdePWhLgiK0Yyd-Qn-7" value="본인 정보는 본인정보 리스트박스에 표시&lt;div&gt;친구정보는 이름 순으로 정렬 후 친구정보 리스트박스에 표시&lt;/div&gt;" style="rounded=1;whiteSpace=wrap;html=1;" vertex="1" parent="1">
          <mxGeometry x="120" y="40" width="140" height="80" as="geometry" />
        </mxCell>
        <mxCell id="x0iYdePWhLgiK0Yyd-Qn-15" style="edgeStyle=orthogonalEdgeStyle;rounded=0;orthogonalLoop=1;jettySize=auto;html=1;exitX=1;exitY=0.5;exitDx=0;exitDy=0;entryX=0.5;entryY=1;entryDx=0;entryDy=0;" edge="1" parent="1" source="x0iYdePWhLgiK0Yyd-Qn-7" target="x0iYdePWhLgiK0Yyd-Qn-2">
          <mxGeometry relative="1" as="geometry">
            <mxPoint x="360" y="-400" as="targetPoint" />
          </mxGeometry>
        </mxCell>
        <mxCell id="x0iYdePWhLgiK0Yyd-Qn-16" value="" style="endArrow=classic;html=1;rounded=0;entryX=0.5;entryY=0;entryDx=0;entryDy=0;" edge="1" parent="1" target="x0iYdePWhLgiK0Yyd-Qn-4">
          <mxGeometry width="50" height="50" relative="1" as="geometry">
            <mxPoint x="190" y="-520" as="sourcePoint" />
            <mxPoint x="140" y="-460" as="targetPoint" />
          </mxGeometry>
        </mxCell>
        <mxCell id="x0iYdePWhLgiK0Yyd-Qn-22" style="edgeStyle=orthogonalEdgeStyle;rounded=0;orthogonalLoop=1;jettySize=auto;html=1;exitX=1;exitY=0.5;exitDx=0;exitDy=0;entryX=0;entryY=0.5;entryDx=0;entryDy=0;" edge="1" parent="1" source="x0iYdePWhLgiK0Yyd-Qn-18" target="x0iYdePWhLgiK0Yyd-Qn-21">
          <mxGeometry relative="1" as="geometry" />
        </mxCell>
        <mxCell id="x0iYdePWhLgiK0Yyd-Qn-18" value="본인 이름 클릭" style="rhombus;whiteSpace=wrap;html=1;" vertex="1" parent="1">
          <mxGeometry x="430" y="-610" width="120" height="60" as="geometry" />
        </mxCell>
        <mxCell id="x0iYdePWhLgiK0Yyd-Qn-21" value="본인과의 채팅 폼 생성" style="rounded=0;whiteSpace=wrap;html=1;fillColor=#ffe6cc;strokeColor=#d79b00;" vertex="1" parent="1">
          <mxGeometry x="630" y="-620" width="120" height="80" as="geometry" />
        </mxCell>
        <mxCell id="x0iYdePWhLgiK0Yyd-Qn-26" style="edgeStyle=orthogonalEdgeStyle;rounded=0;orthogonalLoop=1;jettySize=auto;html=1;exitX=1;exitY=0.5;exitDx=0;exitDy=0;entryX=0;entryY=0.5;entryDx=0;entryDy=0;" edge="1" parent="1" source="x0iYdePWhLgiK0Yyd-Qn-23" target="x0iYdePWhLgiK0Yyd-Qn-25">
          <mxGeometry relative="1" as="geometry" />
        </mxCell>
        <mxCell id="x0iYdePWhLgiK0Yyd-Qn-23" value="친구리스트의&amp;nbsp;&lt;div&gt;이름 클릭&lt;/div&gt;" style="rhombus;whiteSpace=wrap;html=1;" vertex="1" parent="1">
          <mxGeometry x="430" y="-490" width="120" height="60" as="geometry" />
        </mxCell>
        <mxCell id="x0iYdePWhLgiK0Yyd-Qn-25" value="본인과의 채팅 폼 생성" style="rounded=0;whiteSpace=wrap;html=1;fillColor=#f5f5f5;strokeColor=#666666;fontColor=#333333;" vertex="1" parent="1">
          <mxGeometry x="630" y="-500" width="120" height="80" as="geometry" />
        </mxCell>
        <mxCell id="x0iYdePWhLgiK0Yyd-Qn-27" value="" style="endArrow=classic;html=1;rounded=0;" edge="1" parent="1" target="x0iYdePWhLgiK0Yyd-Qn-28">
          <mxGeometry width="50" height="50" relative="1" as="geometry">
            <mxPoint x="590" y="-580" as="sourcePoint" />
            <mxPoint x="430" y="-500" as="targetPoint" />
          </mxGeometry>
        </mxCell>
        <mxCell id="x0iYdePWhLgiK0Yyd-Qn-29" style="edgeStyle=orthogonalEdgeStyle;rounded=0;orthogonalLoop=1;jettySize=auto;html=1;exitX=1;exitY=0.5;exitDx=0;exitDy=0;entryX=0.5;entryY=0;entryDx=0;entryDy=0;" edge="1" parent="1" source="x0iYdePWhLgiK0Yyd-Qn-28" target="x0iYdePWhLgiK0Yyd-Qn-21">
          <mxGeometry relative="1" as="geometry" />
        </mxCell>
        <mxCell id="x0iYdePWhLgiK0Yyd-Qn-28" value="친구목록 폼에서 채팅 상대의 아이디, 이름, 닉네임, 보내는사람의 아이디를 채팅 폼에 전달" style="rounded=1;whiteSpace=wrap;html=1;" vertex="1" parent="1">
          <mxGeometry x="530" y="-720" width="120" height="80" as="geometry" />
        </mxCell>
        <mxCell id="x0iYdePWhLgiK0Yyd-Qn-32" style="edgeStyle=orthogonalEdgeStyle;rounded=0;orthogonalLoop=1;jettySize=auto;html=1;exitX=1;exitY=0.5;exitDx=0;exitDy=0;entryX=0.5;entryY=1;entryDx=0;entryDy=0;" edge="1" parent="1" source="x0iYdePWhLgiK0Yyd-Qn-30" target="x0iYdePWhLgiK0Yyd-Qn-25">
          <mxGeometry relative="1" as="geometry" />
        </mxCell>
        <mxCell id="x0iYdePWhLgiK0Yyd-Qn-30" value="친구목록 폼에서 채팅 상대의 아이디, 이름, 닉네임, 보내는사람의 아이디를 채팅 폼에 전달" style="rounded=1;whiteSpace=wrap;html=1;" vertex="1" parent="1">
          <mxGeometry x="530" y="-400" width="120" height="80" as="geometry" />
        </mxCell>
        <mxCell id="x0iYdePWhLgiK0Yyd-Qn-31" value="" style="endArrow=classic;html=1;rounded=0;entryX=0.5;entryY=0;entryDx=0;entryDy=0;" edge="1" parent="1" target="x0iYdePWhLgiK0Yyd-Qn-30">
          <mxGeometry width="50" height="50" relative="1" as="geometry">
            <mxPoint x="590" y="-460" as="sourcePoint" />
            <mxPoint x="430" y="-500" as="targetPoint" />
          </mxGeometry>
        </mxCell>
      </root>
    </mxGraphModel>
  </diagram>
</mxfile>
